<svg width="24" height="24" xmlns="http://www.w3.org/2000/svg">

 <g>
  <title>background</title>
  <rect fill="none" id="canvas_background" height="402" width="582" y="-1" x="-1"/>
 </g>
 <g>
  <title>Layer 1</title>
  <path fill="#ffffff" stroke="#000000" id="user2" d="m12,0c-6.6,0 -12,5.4 -12,12c0,6.6 5.4,12 12,12s12,-5.4 12,-12c0,-6.6 -5.4,-12 -12,-12zm0,4c2.2,0 4,2.2 4,5s-1.8,5 -4,5s-4,-2.2 -4,-5s1.8,-5 4,-5zm6.6,15.5c-1.7,1.5 -4.1,2.5 -6.6,2.5s-4.9,-1 -6.6,-2.5c-0.4,-0.4 -0.5,-1 -0.1,-1.4c1.1,-1.3 2.6,-2.2 4.2,-2.7c0.8,0.4 1.6,0.6 2.5,0.6s1.7,-0.2 2.5,-0.6c1.7,0.5 3.1,1.4 4.2,2.7c0.4,0.4 0.4,1 -0.1,1.4z"/>
 </g>
</svg>