<svg width="32" height="32" xmlns="http://www.w3.org/2000/svg">

 <g>
  <title>background</title>
  <rect fill="none" id="canvas_background" height="402" width="582" y="-1" x="-1"/>
 </g>
 <g>
  <title>Layer 1</title>
  <path fill="#ffffff" stroke="null" id="svg_1" d="m25.352207,14.142573l-16.484315,0l3.966538,-3.00987c0.338272,-0.256686 0.497964,-0.562885 0.497964,-0.899052c0,-0.641063 -0.698008,-1.302974 -1.717116,-1.302974c-0.455894,0 -0.853407,0.125737 -1.18481,0.377862l-6.832405,5.184533c-0.281607,0.213688 -0.568365,0.47754 -0.568365,0.952474s0.239538,0.703606 0.554629,0.942702l6.846142,5.194306c0.331403,0.252125 0.728916,0.377862 1.18481,0.377862c1.019967,0 1.717116,-0.661911 1.717116,-1.302974c0,-0.336167 -0.159692,-0.642366 -0.497964,-0.899052l-3.966538,-3.00987l16.484315,0c0.947848,0 1.717116,-0.583732 1.717116,-1.302974s-0.769268,-1.302974 -1.717116,-1.302974z"/>
 </g>
</svg>