<svg width="50" height="50" xmlns="http://www.w3.org/2000/svg">
 <g>
  <title>background</title>
  <rect x="-1" y="-1" width="4.970281" height="4.970281" id="canvas_background" fill="none"/>
 </g>

 <g>
  <title>Layer 1</title>
  <path stroke-width="0.4" stroke="#00000e" d="m9,48.876238l32,0l0,-4l8,0l0,-12c0,-5.834 -3.863,-10.781 -9.165,-12.421c2.5,-1.601 4.165,-4.397 4.165,-7.579c0,-4.962 -4.037,-9 -9,-9c-0.855,0 -1.703,0.128 -2.531,0.373c-1.833,-2.063 -4.498,-3.373 -7.469,-3.373s-5.636,1.31 -7.469,3.373c-0.828,-0.245 -1.676,-0.373 -2.531,-0.373c-4.963,0 -9,4.038 -9,9c0,3.182 1.665,5.978 4.165,7.579c-5.302,1.64 -9.165,6.587 -9.165,12.421l0,12l8,0l0,4zm30,-2l-28,0l0,-2l0,-13c0,-0.334 0.021,-0.664 0.05,-0.991c0.01,-0.107 0.023,-0.213 0.035,-0.32c0.027,-0.226 0.062,-0.449 0.103,-0.67c0.021,-0.112 0.038,-0.225 0.062,-0.336c0.062,-0.287 0.135,-0.569 0.218,-0.848c0.042,-0.138 0.092,-0.272 0.139,-0.408c0.054,-0.158 0.111,-0.314 0.172,-0.469c0.059,-0.149 0.121,-0.297 0.186,-0.443c0.064,-0.143 0.134,-0.283 0.204,-0.423c0.102,-0.204 0.21,-0.404 0.324,-0.601c0.1,-0.171 0.2,-0.342 0.308,-0.507c0.084,-0.128 0.174,-0.252 0.263,-0.377c0.094,-0.132 0.191,-0.262 0.291,-0.389c0.092,-0.117 0.184,-0.233 0.281,-0.346c0.126,-0.147 0.257,-0.289 0.39,-0.429c0.123,-0.13 0.249,-0.258 0.378,-0.382c0.159,-0.152 0.32,-0.301 0.488,-0.444c0.11,-0.093 0.224,-0.182 0.338,-0.271c0.131,-0.102 0.263,-0.202 0.399,-0.298c0.126,-0.09 0.252,-0.179 0.383,-0.264c0.132,-0.086 0.268,-0.165 0.403,-0.245c0.255,-0.151 0.517,-0.292 0.786,-0.423c0.135,-0.066 0.268,-0.135 0.406,-0.196l0.161,-0.072c1.304,-0.545 2.733,-0.848 4.232,-0.848l6,0c1.499,0 2.928,0.303 4.231,0.849l0.161,0.072c0.138,0.06 0.271,0.13 0.406,0.196c0.269,0.131 0.531,0.272 0.786,0.423c0.136,0.08 0.272,0.159 0.403,0.245c0.13,0.085 0.257,0.174 0.383,0.264c0.135,0.096 0.268,0.196 0.399,0.298c0.114,0.089 0.228,0.178 0.338,0.271c0.168,0.142 0.329,0.292 0.488,0.444c0.13,0.124 0.255,0.252 0.378,0.382c0.133,0.14 0.265,0.282 0.39,0.429c0.096,0.113 0.189,0.229 0.281,0.346c0.1,0.127 0.197,0.257 0.291,0.389c0.089,0.125 0.18,0.248 0.263,0.377c0.108,0.165 0.209,0.336 0.308,0.507c0.114,0.197 0.222,0.398 0.324,0.601c0.07,0.14 0.14,0.28 0.204,0.423c0.066,0.146 0.127,0.294 0.186,0.443c0.061,0.154 0.117,0.311 0.172,0.469c0.047,0.136 0.097,0.271 0.139,0.408c0.084,0.278 0.157,0.561 0.218,0.848c0.024,0.111 0.042,0.224 0.062,0.336c0.04,0.221 0.076,0.445 0.103,0.67c0.013,0.106 0.026,0.213 0.035,0.32c0.03,0.326 0.051,0.656 0.051,0.99l0,13l0,2zm8,-14l0,10l-6,0l0,-11c0,-0.475 -0.029,-0.943 -0.079,-1.405c-0.012,-0.109 -0.035,-0.215 -0.049,-0.323c-0.048,-0.357 -0.104,-0.712 -0.18,-1.059c-0.025,-0.114 -0.059,-0.224 -0.087,-0.337c-0.084,-0.339 -0.177,-0.674 -0.287,-1.002c-0.037,-0.111 -0.08,-0.219 -0.12,-0.328c-0.118,-0.323 -0.247,-0.641 -0.389,-0.951c-0.05,-0.109 -0.103,-0.217 -0.157,-0.324c-0.149,-0.303 -0.309,-0.598 -0.481,-0.887c-0.063,-0.106 -0.126,-0.212 -0.193,-0.317c-0.18,-0.283 -0.371,-0.557 -0.571,-0.825c-0.073,-0.098 -0.143,-0.197 -0.219,-0.293c-0.219,-0.277 -0.452,-0.542 -0.693,-0.8c-0.068,-0.073 -0.131,-0.15 -0.201,-0.221c-0.316,-0.324 -0.646,-0.634 -0.994,-0.923c5.927,0.159 10.7,5.03 10.7,10.995zm-13.277,-26.879c0.422,-0.08 0.848,-0.121 1.277,-0.121c3.859,0 7,3.14 7,7s-3.141,7 -7,7c-1.373,0 -2.694,-0.4 -3.826,-1.144c0.015,-0.011 0.027,-0.025 0.041,-0.037c0.861,-0.685 1.603,-1.509 2.199,-2.438c0.019,-0.03 0.036,-0.06 0.055,-0.09c0.173,-0.276 0.332,-0.56 0.478,-0.853c0.024,-0.048 0.046,-0.096 0.069,-0.144c0.133,-0.277 0.252,-0.561 0.359,-0.852c0.022,-0.06 0.045,-0.12 0.066,-0.18c0.097,-0.279 0.18,-0.564 0.252,-0.854c0.018,-0.072 0.039,-0.143 0.055,-0.215c0.064,-0.283 0.112,-0.571 0.151,-0.863c0.011,-0.077 0.027,-0.153 0.035,-0.231c0.042,-0.36 0.066,-0.727 0.066,-1.099c0,-0.396 -0.029,-0.784 -0.074,-1.168c-0.014,-0.122 -0.037,-0.242 -0.056,-0.364c-0.042,-0.268 -0.092,-0.533 -0.154,-0.794c-0.03,-0.127 -0.062,-0.253 -0.097,-0.378c-0.081,-0.289 -0.176,-0.572 -0.282,-0.849c-0.03,-0.077 -0.054,-0.156 -0.085,-0.232c-0.152,-0.37 -0.325,-0.728 -0.519,-1.075c-0.005,-0.007 -0.007,-0.013 -0.01,-0.019zm-2.56,-0.216l0.061,0.079c0.049,0.061 0.093,0.125 0.14,0.187c0.51,0.671 0.9,1.402 1.174,2.173c0.018,0.05 0.038,0.099 0.055,0.15c0.119,0.359 0.209,0.726 0.276,1.1c0.014,0.078 0.025,0.158 0.036,0.237c0.056,0.385 0.095,0.774 0.095,1.169c0,0.328 -0.025,0.652 -0.065,0.973c-0.009,0.075 -0.023,0.149 -0.034,0.224c-0.041,0.265 -0.092,0.527 -0.159,0.784c-0.014,0.054 -0.027,0.109 -0.042,0.163c-0.181,0.644 -0.439,1.262 -0.771,1.838c-0.006,0.01 -0.012,0.02 -0.018,0.03c-0.161,0.277 -0.341,0.544 -0.535,0.8c-0.018,0.023 -0.035,0.047 -0.053,0.071c-0.407,0.527 -0.881,1.004 -1.414,1.42c-0.031,0.024 -0.064,0.047 -0.095,0.071c-0.247,0.187 -0.505,0.361 -0.775,0.52c-0.048,0.028 -0.093,0.059 -0.142,0.086l-0.114,0.066c-1.128,0.608 -2.415,0.954 -3.783,0.954s-2.655,-0.346 -3.782,-0.954l-0.114,-0.066c-0.048,-0.027 -0.094,-0.058 -0.142,-0.086c-0.27,-0.159 -0.528,-0.333 -0.775,-0.52c-0.032,-0.024 -0.064,-0.047 -0.095,-0.071c-0.532,-0.416 -1.006,-0.893 -1.414,-1.42c-0.018,-0.023 -0.035,-0.047 -0.053,-0.071c-0.194,-0.256 -0.373,-0.523 -0.535,-0.8c-0.006,-0.01 -0.012,-0.02 -0.018,-0.03c-0.333,-0.577 -0.591,-1.195 -0.772,-1.839c-0.015,-0.053 -0.028,-0.108 -0.042,-0.161c-0.067,-0.258 -0.118,-0.52 -0.159,-0.785c-0.011,-0.075 -0.025,-0.148 -0.034,-0.224c-0.04,-0.321 -0.065,-0.645 -0.065,-0.973c0,-0.395 0.039,-0.784 0.095,-1.168c0.012,-0.079 0.022,-0.158 0.036,-0.237c0.067,-0.373 0.157,-0.741 0.276,-1.1c0.017,-0.051 0.037,-0.1 0.055,-0.15c0.274,-0.771 0.664,-1.503 1.174,-2.173c0.047,-0.062 0.091,-0.127 0.14,-0.187l0.061,-0.079c1.469,-1.774 3.686,-2.906 6.163,-2.906s4.694,1.132 6.163,2.905zm-23.163,7.095c0,-3.86 3.141,-7 7,-7c0.429,0 0.855,0.041 1.277,0.121c-0.003,0.006 -0.006,0.013 -0.009,0.019c-0.193,0.346 -0.367,0.704 -0.519,1.074c-0.032,0.077 -0.056,0.156 -0.086,0.234c-0.106,0.277 -0.201,0.56 -0.282,0.848c-0.035,0.125 -0.067,0.251 -0.097,0.378c-0.062,0.261 -0.112,0.526 -0.154,0.794c-0.019,0.121 -0.041,0.241 -0.056,0.364c-0.045,0.384 -0.074,0.772 -0.074,1.168c0,0.372 0.024,0.739 0.064,1.1c0.009,0.078 0.025,0.153 0.035,0.23c0.039,0.292 0.088,0.581 0.151,0.864c0.016,0.072 0.037,0.142 0.055,0.213c0.072,0.29 0.155,0.576 0.252,0.856c0.021,0.061 0.044,0.12 0.066,0.181c0.107,0.29 0.227,0.574 0.359,0.851c0.023,0.048 0.046,0.097 0.07,0.145c0.146,0.293 0.305,0.577 0.478,0.853c0.019,0.03 0.036,0.06 0.055,0.09c0.596,0.929 1.339,1.752 2.199,2.438c0.014,0.012 0.027,0.025 0.041,0.037c-1.131,0.742 -2.452,1.142 -3.825,1.142c-3.859,0 -7,-3.14 -7,-7zm-5,30l0,-10c0,-5.965 4.773,-10.836 10.701,-10.996c-0.348,0.289 -0.678,0.6 -0.994,0.923c-0.07,0.071 -0.133,0.148 -0.201,0.221c-0.241,0.258 -0.474,0.523 -0.694,0.801c-0.075,0.095 -0.145,0.194 -0.218,0.292c-0.201,0.268 -0.392,0.542 -0.572,0.826c-0.066,0.105 -0.129,0.21 -0.193,0.317c-0.172,0.289 -0.332,0.584 -0.481,0.887c-0.053,0.108 -0.106,0.215 -0.157,0.324c-0.143,0.31 -0.271,0.628 -0.389,0.951c-0.04,0.11 -0.083,0.217 -0.12,0.328c-0.11,0.329 -0.203,0.664 -0.288,1.004c-0.028,0.112 -0.061,0.222 -0.086,0.335c-0.076,0.348 -0.132,0.703 -0.18,1.061c-0.015,0.108 -0.037,0.213 -0.049,0.322c-0.05,0.461 -0.079,0.929 -0.079,1.404l0,11l-6,0z" id="svg_1" fill="#ffffff"/>
 </g>
</svg>