<svg width="71.2" height="86.3" xmlns="http://www.w3.org/2000/svg">
 <title/>

 <g>
  <title>background</title>
  <rect fill="none" id="canvas_background" height="402" width="582" y="-1" x="-1"/>
 </g>
 <g>
  <title>Layer 1</title>
  <path fill="#ffffff" id="svg_1" d="m67.2,20.5l-63.2,0c-2.2,0 -4,-1.8 -4,-4l0,-12.5c0,-2.2 1.8,-4 4,-4l63.2,0c2.2,0 4,1.8 4,4l0,12.6c0,2.1 -1.8,3.9 -4,3.9zm-63.2,-19c-1.4,0 -2.5,1.1 -2.5,2.5l0,12.6c0,1.3 1.1,2.4 2.5,2.4l63.2,0c1.4,0 2.5,-1.1 2.5,-2.5l0,-12.5c0,-1.4 -1.1,-2.5 -2.5,-2.5l-63.2,0z"/>
  <path fill="#ffffff" id="svg_2" d="m9.6,12.7c-1.3,0 -2.4,-1.1 -2.4,-2.4c0,-1.3 1.1,-2.4 2.4,-2.4c1.3,0 2.4,1.1 2.4,2.4c0,1.3 -1.1,2.4 -2.4,2.4zm0,-3.4c-0.5,0 -0.9,0.4 -0.9,0.9c0,0.5 0.4,0.9 0.9,0.9c0.5,0 0.9,-0.4 0.9,-0.9c0,-0.4 -0.4,-0.9 -0.9,-0.9z"/>
  <path fill="#ffffff" id="svg_3" d="m64,17l-3.2,0c-0.4,0 -0.7,-0.3 -0.8,-0.8l0,-12.1c0,-0.4 0.3,-0.7 0.8,-0.8l3.2,0c0.4,0 0.7,0.3 0.7,0.8l0,12.2c0,0.4 -0.3,0.7 -0.7,0.7zm-2.5,-1.5l1.7,0l0,-10.6l-1.7,0l0,10.6z"/>
  <path fill="#ffffff" id="svg_4" d="m58.1,17l-3.2,0c-0.4,0 -0.7,-0.3 -0.8,-0.8l0,-12.1c0,-0.4 0.3,-0.7 0.8,-0.8l3.2,0c0.4,0 0.7,0.3 0.8,0.8l0,12.2c0,0.4 -0.4,0.7 -0.8,0.7zm-2.5,-1.5l1.7,0l0,-10.6l-1.7,0l0,10.6z"/>
  <path fill="#ffffff" id="svg_5" d="m52.3,17l-3.3,0c-0.4,0 -0.7,-0.3 -0.8,-0.8l0,-12.1c0,-0.4 0.3,-0.7 0.8,-0.8l3.2,0c0.4,0 0.7,0.3 0.8,0.8l0,12.2c0,0.4 -0.3,0.7 -0.7,0.7zm-2.5,-1.5l1.7,0l0,-10.6l-1.7,0l0,10.6z"/>
  <path fill="#ffffff" id="svg_6" d="m67.2,42.4l-63.2,0c-2.2,0 -4,-1.8 -4,-4l0,-12.5c0,-2.2 1.8,-4 4,-4l63.2,0c2.2,0 4,1.8 4,4l0,12.6c0,2.2 -1.8,3.9 -4,3.9zm-63.2,-19c-1.4,0 -2.5,1.1 -2.5,2.5l0,12.6c0,1.4 1.1,2.5 2.5,2.5l63.2,0c1.4,0 2.5,-1.1 2.5,-2.5l0,-12.6c0,-1.4 -1.1,-2.5 -2.5,-2.5l-63.2,0z"/>
  <path fill="#ffffff" id="svg_7" d="m9.6,34.6c-1.3,0 -2.4,-1.1 -2.4,-2.4c0,-1.3 1.1,-2.4 2.4,-2.4c1.3,0 2.4,1.1 2.4,2.4c0,1.3 -1.1,2.4 -2.4,2.4zm0,-3.3c-0.5,0 -0.9,0.4 -0.9,0.9c0,0.5 0.4,0.9 0.9,0.9s0.9,-0.4 0.9,-0.9c0,0 0,0 0,0c0,-0.5 -0.4,-0.9 -0.9,-0.9z"/>
  <path fill="#ffffff" id="svg_8" d="m64,39l-3.2,0c-0.4,0 -0.7,-0.3 -0.8,-0.8l0,-12.1c0,-0.4 0.3,-0.7 0.8,-0.8l3.2,0c0.4,0 0.7,0.3 0.7,0.8l0,12.2c0,0.3 -0.3,0.7 -0.7,0.7zm-2.5,-1.5l1.7,0l0,-10.7l-1.7,0l0,10.7z"/>
  <path fill="#ffffff" id="svg_9" d="m58.1,39l-3.2,0c-0.4,0 -0.7,-0.3 -0.8,-0.8l0,-12.1c0,-0.4 0.3,-0.7 0.8,-0.8l3.2,0c0.4,0 0.7,0.3 0.8,0.8l0,12.2c0,0.3 -0.4,0.7 -0.8,0.7zm-2.5,-1.5l1.7,0l0,-10.7l-1.7,0l0,10.7z"/>
  <path fill="#ffffff" id="svg_10" d="m52.3,39l-3.3,0c-0.4,0 -0.7,-0.3 -0.8,-0.8l0,-12.1c0,-0.4 0.3,-0.7 0.8,-0.8l3.2,0c0.4,0 0.7,0.3 0.8,0.8l0,12.2c0,0.3 -0.3,0.7 -0.7,0.7zm-2.5,-1.5l1.7,0l0,-10.7l-1.7,0l0,10.7z"/>
  <path fill="#ffffff" id="svg_11" d="m67.2,64.4l-63.2,0c-2.2,0 -4,-1.8 -4,-4l0,-12.6c0,-2.2 1.8,-4 4,-4l63.2,0c2.2,0 4,1.8 4,4l0,12.6c0,2.2 -1.8,4 -4,4zm-63.2,-19c-1.4,0 -2.5,1.1 -2.5,2.5l0,12.6c0,1.4 1.1,2.5 2.5,2.5l63.2,0c1.4,0 2.5,-1.1 2.5,-2.5l0,-12.7c0,-1.4 -1.1,-2.5 -2.5,-2.5l-63.2,0.1z"/>
  <path fill="#ffffff" id="svg_12" d="m9.6,56.5c-1.3,0 -2.4,-1.1 -2.4,-2.4c0,-1.3 1.1,-2.4 2.4,-2.4c1.3,0 2.4,1.1 2.4,2.4c0,0 0,0 0,0c0,1.3 -1.1,2.4 -2.4,2.4zm0,-3.3c-0.5,0 -0.9,0.4 -0.9,0.9c0,0.5 0.4,0.9 0.9,0.9c0.5,0 0.9,-0.4 0.9,-0.9c0,-0.5 -0.4,-0.9 -0.9,-0.9z"/>
  <path fill="#ffffff" id="svg_13" d="m64,60.9l-3.2,0c-0.4,0 -0.7,-0.3 -0.8,-0.8l0,-12.1c0,-0.4 0.3,-0.7 0.8,-0.8l3.2,0c0.4,0 0.7,0.3 0.7,0.8l0,12.2c0,0.4 -0.3,0.7 -0.7,0.7zm-2.5,-1.5l1.7,0l0,-10.7l-1.7,0l0,10.7z"/>
  <path fill="#ffffff" id="svg_14" d="m58.1,60.9l-3.2,0c-0.4,0 -0.7,-0.3 -0.8,-0.8l0,-12.1c0,-0.4 0.3,-0.7 0.8,-0.8l3.2,0c0.4,0 0.7,0.3 0.8,0.8l0,12.2c0,0.4 -0.4,0.7 -0.8,0.7zm-2.5,-1.5l1.7,0l0,-10.7l-1.7,0l0,10.7z"/>
  <path fill="#ffffff" id="svg_15" d="m52.3,60.9l-3.3,0c-0.4,0 -0.7,-0.3 -0.8,-0.8l0,-12.1c0,-0.4 0.3,-0.7 0.8,-0.8l3.2,0c0.4,0 0.7,0.3 0.8,0.8l0,12.2c0,0.4 -0.3,0.7 -0.7,0.7zm-2.5,-1.5l1.7,0l0,-10.7l-1.7,0l0,10.7z"/>
  <path fill="#ffffff" id="svg_16" d="m67.2,86.3l-63.2,0c-2.2,0 -4,-1.8 -4,-4l0,-12.6c0,-2.2 1.8,-4 4,-4l63.2,0c2.2,0 4,1.8 4,4l0,12.6c0,2.2 -1.8,4 -4,4zm-63.2,-19c-1.4,0 -2.5,1.1 -2.5,2.5l0,12.6c0,1.4 1.1,2.5 2.5,2.5l63.2,0c1.4,0 2.5,-1.1 2.5,-2.5l0,-12.7c0,-1.4 -1.1,-2.5 -2.5,-2.5l-63.2,0.1z"/>
  <path fill="#ffffff" id="svg_17" d="m9.6,78.5c-1.3,0 -2.4,-1.1 -2.4,-2.4c0,-1.3 1.1,-2.4 2.4,-2.4c1.3,0 2.4,1.1 2.4,2.4c0,0 0,0 0,0c0,1.3 -1.1,2.4 -2.4,2.4zm0,-3.4c-0.5,0 -0.9,0.4 -0.9,0.9c0,0.5 0.4,0.9 0.9,0.9c0.5,0 0.9,-0.4 0.9,-0.9c0,-0.5 -0.4,-0.9 -0.9,-0.9z"/>
  <path fill="#ffffff" id="svg_18" d="m64,82.8l-3.2,0c-0.4,0 -0.7,-0.3 -0.8,-0.8l0,-12.1c0,-0.4 0.3,-0.7 0.8,-0.8l3.2,0c0.4,0 0.7,0.3 0.7,0.8l0,12.2c0,0.4 -0.3,0.7 -0.7,0.7zm-2.5,-1.5l1.7,0l0,-10.6l-1.7,0l0,10.6z"/>
  <path fill="#ffffff" id="svg_19" d="m58.1,82.8l-3.2,0c-0.4,0 -0.7,-0.3 -0.8,-0.8l0,-12.1c0,-0.4 0.3,-0.7 0.8,-0.8l3.2,0c0.4,0 0.7,0.3 0.8,0.8l0,12.2c0,0.4 -0.4,0.7 -0.8,0.7zm-2.5,-1.5l1.7,0l0,-10.6l-1.7,0l0,10.6z"/>
  <path fill="#ffffff" id="svg_20" d="m52.3,82.8l-3.3,0c-0.4,0 -0.7,-0.3 -0.8,-0.8l0,-12.1c0,-0.4 0.3,-0.7 0.8,-0.8l3.2,0c0.4,0 0.7,0.3 0.8,0.8l0,12.2c0,0.4 -0.3,0.7 -0.7,0.7zm-2.5,-1.5l1.7,0l0,-10.6l-1.7,0l0,10.6z"/>
 </g>
</svg>