<svg width="50" height="50" xmlns="http://www.w3.org/2000/svg">
 <g>
  <title>background</title>
  <rect x="-1" y="-1" width="8.188087" height="8.188087" id="canvas_background" fill="none"/>
 </g>

 <g>
  <title>Layer 1</title>
  <path stroke-width="0.4" d="m8,48.74176l5,-2.5l4,2l4,-2l4,2l4,-2l4,2l4,-2l5,2.5l0,-47.618l-34,0l0,47.618zm2,-45.618l30,0l0,42.382l-3,-1.5l-4,2l-4,-2l-4,2l-4,-2l-4,2l-4,-2l-3,1.5l0,-42.382z" id="svg_1" stroke="#00000e" fill="#ffffff"/>
  <path stroke-width="0.4" d="m25,16.12376c2.757,0 5,-2.243 5,-5s-2.243,-5 -5,-5s-5,2.243 -5,5s2.243,5 5,5zm0,-8c1.654,0 3,1.346 3,3s-1.346,3 -3,3s-3,-1.346 -3,-3s1.346,-3 3,-3z" id="svg_2" stroke="#00000e" fill="#ffffff"/>
  <rect stroke-width="0.4" stroke="#00000e" height="2" width="12" x="14" y="21.87624" id="svg_3" fill="#ffffff"/>
  <rect stroke-width="0.4" stroke="#00000e" height="2" width="4" x="32" y="22.12376" id="svg_4" fill="#ffffff"/>
  <rect stroke-width="0.4" height="2" width="12" x="14" y="27.12376" id="svg_5" stroke="#00000e" fill="#ffffff"/>
  <rect stroke-width="0.4" stroke="#00000e" height="2" width="4" x="32" y="27.12376" id="svg_6" fill="#ffffff"/>
  <rect stroke-width="0.4" height="2" width="12" x="14" y="32.12376" id="svg_7" stroke="#00000e" fill="#ffffff"/>
  <rect stroke-width="0.4" height="2" width="4" x="32" y="32.12376" id="svg_8" stroke="#00000e" fill="#ffffff"/>
  <rect stroke-width="0.4" height="2" width="12" x="14" y="37.12376" id="svg_9" stroke="#00000e" fill="#ffffff"/>
  <rect stroke-width="0.4" stroke="#00000e" height="2" width="4" x="32" y="37.12376" id="svg_10" fill="#ffffff"/>
 </g>
</svg>