<svg width="48" height="48" xmlns="http://www.w3.org/2000/svg">

 <g>
  <title>background</title>
  <rect fill="none" id="canvas_background" height="402" width="582" y="-1" x="-1"/>
 </g>
 <g>
  <title>Layer 1</title>
  <path fill="#ffffff" id="svg_2" d="m59,19l0,-6l-4,0l0,-1c0,-1.654 -1.346,-3 -3,-3c-0.352,0 -0.686,0.072 -1,0.184l0,-3.184c0,-2.757 -2.243,-5 -5,-5s-5,2.243 -5,5l0,7l-3,0c-2.757,0 -5,2.243 -5,5l0,1l-2,0l0,-1c0,-2.757 -2.243,-5 -5,-5l-21,0l0,6l-4,0l0,40l26.101,0c0.464,2.279 2.485,4 4.899,4s4.435,-1.721 4.899,-4l26.101,0l0,-40l-4,0zm-13.329,21.755l-2.327,-7.755l5.312,0l-2.327,7.755c-0.088,0.293 -0.57,0.293 -0.658,0zm3.329,-9.755l-6,0l0,-18l6,0l0,18zm-3,-28c1.654,0 3,1.346 3,3l0,5l-6,0l0,-5c0,-1.654 1.346,-3 3,-3zm-11,15c0,-1.654 1.346,-3 3,-3l3,0l0,17l2.658,9l-4.658,0l0,2l16,0l0,-2l-6.656,0l2.656,-8.853l0,-20.147c0,-0.551 0.449,-1 1,-1s1,0.449 1,1l0,14l2,0l0,-11l2,0l0,38l-22,0l0,-4c1.103,0 2,-0.897 2,-2l0,-2c0,-1.103 -0.897,-2 -2,-2l0,-2c1.103,0 2,-0.897 2,-2l0,-2c0,-1.103 -0.897,-2 -2,-2l0,-2c1.103,0 2,-0.897 2,-2l0,-2c0,-1.103 -0.897,-2 -2,-2l0,-2c1.103,0 2,-0.897 2,-2l0,-2c0,-1.103 -0.897,-2 -2,-2l0,-1zm-6,29l0,-2l6,0l0.001,2l-6.001,0zm6.001,-24l-6.001,0l0,-2l6,0l0.001,2zm-2.001,2l0,2l-2,0l0,-2l2,0zm2,4l0.001,2l-6.001,0l0,-2l6,0zm-2,4l0,2l-2,0l0,-2l2,0zm2,4l0.001,2l-6.001,0l0,-2l6,0zm-2,4l0,2l-2,0l0,-2l2,0zm-26,-26l19,0c1.654,0 3,1.346 3,3l0,1c-1.103,0 -2,0.897 -2,2l0,2c0,1.103 0.897,2 2,2l0,2c-1.103,0 -2,0.897 -2,2l0,2c0,1.103 0.897,2 2,2l0,2c-1.103,0 -2,0.897 -2,2l0,2c0,1.103 0.897,2 2,2l0,2c-1.103,0 -2,0.897 -2,2l0,2c0,1.103 0.897,2 2,2l0,4l-22,0l0,-38zm54,42l-26,0l0,1c0,1.654 -1.346,3 -3,3s-3,-1.346 -3,-3l0,-1l-26,0l0,-36l2,0l0,34l26,0l0,-6l2,0l0,6l26,0l0,-34l2,0l0,36z"/>
  <rect fill="#ffffff" id="svg_3" y="45" x="39" width="16" height="2"/>
  <path fill="#ffffff" stroke="null" style="vector-effect: non-scaling-stroke;" id="svg_4" d="m9,27l16,0l0,-10l-16,0l0,10zm2,-8l12,0l0,6l-12,0l0,-6z"/>
  <rect fill="#ffffff" id="svg_5" y="33" x="9" width="14" height="2"/>
  <rect fill="#ffffff" id="svg_6" y="37" x="15" width="10" height="2"/>
  <rect fill="#ffffff" id="svg_7" y="37" x="9" width="4" height="2"/>
  <rect fill="#ffffff" id="svg_8" y="41" x="23" width="2" height="2"/>
  <rect fill="#ffffff" id="svg_9" y="41" x="9" width="12" height="2"/>
  <rect fill="#ffffff" id="svg_10" y="45" x="9" width="10" height="2"/>
  <rect fill="#ffffff" id="svg_11" y="29" x="9" width="16" height="2"/>
 </g>
</svg>